<?xml version="1.0" encoding="UTF-8"?>
<svg id="Layer_1" xmlns="http://www.w3.org/2000/svg" version="1.1" viewBox="0 0 85.81 69.38">
  <!-- Generator: Adobe Illustrator 29.0.1, SVG Export Plug-In . SVG Version: 2.1.0 Build 192)  -->
  <circle cx="6.19" cy="64.57" r="2.2"/>
  <circle cx="20.92" cy="64.57" r="2.2"/>
  <circle cx="35.65" cy="64.57" r="2.2"/>
  <path d="M50.38,62.37c-1.22,0-2.2.99-2.2,2.2s.99,2.2,2.2,2.2,2.2-.99,2.2-2.2-.99-2.2-2.2-2.2Z"/>
  <path d="M65.1,62.37c-1.22,0-2.2.99-2.2,2.2s.99,2.2,2.2,2.2,2.2-.99,2.2-2.2-.99-2.2-2.2-2.2Z"/>
  <circle cx="79.83" cy="64.57" r="2.2"/>
  <circle cx="6.19" cy="52.69" r="2.2"/>
  <circle cx="20.92" cy="52.69" r="2.2"/>
  <circle cx="35.65" cy="52.69" r="2.2"/>
  <path d="M50.38,50.49c-1.22,0-2.2.99-2.2,2.2s.99,2.2,2.2,2.2,2.2-.99,2.2-2.2-.99-2.2-2.2-2.2Z"/>
  <path d="M65.1,50.49c-1.22,0-2.2.99-2.2,2.2s.99,2.2,2.2,2.2,2.2-.99,2.2-2.2-.99-2.2-2.2-2.2Z"/>
  <circle cx="79.83" cy="52.69" r="2.2"/>
  <path d="M6.19,38.61c-1.22,0-2.2.99-2.2,2.2s.99,2.2,2.2,2.2,2.2-.99,2.2-2.2-.99-2.2-2.2-2.2Z"/>
  <path d="M20.92,38.61c-1.22,0-2.2.99-2.2,2.2s.99,2.2,2.2,2.2,2.2-.99,2.2-2.2-.99-2.2-2.2-2.2Z"/>
  <path d="M35.65,38.61c-1.22,0-2.2.99-2.2,2.2s.99,2.2,2.2,2.2,2.2-.99,2.2-2.2-.99-2.2-2.2-2.2Z"/>
  <path d="M50.38,38.61c-1.22,0-2.2.99-2.2,2.2s.99,2.2,2.2,2.2,2.2-.99,2.2-2.2-.99-2.2-2.2-2.2Z"/>
  <path d="M65.1,38.61c-1.22,0-2.2.99-2.2,2.2s.99,2.2,2.2,2.2,2.2-.99,2.2-2.2-.99-2.2-2.2-2.2Z"/>
  <path d="M79.83,38.61c-1.22,0-2.2.99-2.2,2.2s.99,2.2,2.2,2.2,2.2-.99,2.2-2.2-.99-2.2-2.2-2.2Z"/>
  <circle cx="6.19" cy="28.93" r="2.2"/>
  <circle cx="20.92" cy="28.93" r="2.2"/>
  <circle cx="35.65" cy="28.93" r="2.2"/>
  <path d="M50.38,26.73c-1.22,0-2.2.99-2.2,2.2s.99,2.2,2.2,2.2,2.2-.99,2.2-2.2-.99-2.2-2.2-2.2Z"/>
  <path d="M65.1,26.73c-1.22,0-2.2.99-2.2,2.2s.99,2.2,2.2,2.2,2.2-.99,2.2-2.2-.99-2.2-2.2-2.2Z"/>
  <circle cx="79.83" cy="28.93" r="2.2"/>
  <circle cx="6.19" cy="17.05" r="2.2"/>
  <circle cx="20.92" cy="17.05" r="2.2"/>
  <circle cx="35.65" cy="17.05" r="2.2"/>
  <path d="M50.38,14.84c-1.22,0-2.2.99-2.2,2.2s.99,2.2,2.2,2.2,2.2-.99,2.2-2.2-.99-2.2-2.2-2.2Z"/>
  <path d="M65.1,14.84c-1.22,0-2.2.99-2.2,2.2s.99,2.2,2.2,2.2,2.2-.99,2.2-2.2-.99-2.2-2.2-2.2Z"/>
  <circle cx="79.83" cy="17.05" r="2.2"/>
  <path d="M6.19,2.96c-1.22,0-2.2.99-2.2,2.2s.99,2.2,2.2,2.2,2.2-.99,2.2-2.2-.99-2.2-2.2-2.2Z"/>
  <path d="M20.92,2.96c-1.22,0-2.2.99-2.2,2.2s.99,2.2,2.2,2.2,2.2-.99,2.2-2.2-.99-2.2-2.2-2.2Z"/>
  <path d="M35.65,2.96c-1.22,0-2.2.99-2.2,2.2s.99,2.2,2.2,2.2,2.2-.99,2.2-2.2-.99-2.2-2.2-2.2Z"/>
  <path d="M50.38,2.96c-1.22,0-2.2.99-2.2,2.2s.99,2.2,2.2,2.2,2.2-.99,2.2-2.2-.99-2.2-2.2-2.2Z"/>
  <path d="M65.1,2.96c-1.22,0-2.2.99-2.2,2.2s.99,2.2,2.2,2.2,2.2-.99,2.2-2.2-.99-2.2-2.2-2.2Z"/>
  <path d="M79.83,2.96c-1.22,0-2.2.99-2.2,2.2s.99,2.2,2.2,2.2,2.2-.99,2.2-2.2-.99-2.2-2.2-2.2Z"/>
</svg>